<svg xmlns="http://www.w3.org/2000/svg" class="diagram-root" style="background: #f5f6f6" xmlns:xlink="http://www.w3.org/1999/xlink"><style>.diagram-root { font-family: "Helvetica Neue", sans-serif; font-size: 12px; } .t { overflow: visible; } .t-bg { y: 40; fill: #fff;   } .th { fill: #005aa0;   } .tht { fill: #fff; font-size: 14px;  } .tf { fill: #323c46; overflow: visible; } .tf.pk { fill: #005aa0; font-weight: bold; } .tf.fk { font-weight: bold; } .ty { fill: #adb1b5; font-weight: normal; text-anchor: end; } .r { fill: transparent; stroke: #c3c3c3; stroke-width: 1; } .l { stroke: 1; } .i { fill: #c2c7ce; stroke: #c2c7ce; } .i.ix { fill: #afb3b6; stroke: #000; } .fa { fill: transparent; overflow: visible; } .fa .bg.hover { fill: #f7f7f7; } .c { cy: 12; r: 4; stroke: #d2d2dc; fill: #d2d2dc; } .hr { fill: transparent; stroke: #323c46; stroke-opacity: 0.035; stroke-width: 13; } .dc { stroke: #fa5a3c; fill: #fa5a3c; } .x { stroke: white; stroke-width: 1; } .hl .th { fill: #1b9bff; } .hl .tht {  } .fhl .bg { fill: #e7f4ff; } .fhls .bg {  } .r.hl { stroke: #1b9bff; } .dim { opacity: 0.25; }</style><g class="drawing-wrapper" transform="translate(0) scale(0.7)"><g class="rs"><path class="r" id="h1139284389" d="M 315.16 472.24 m -1 0 a 1 1 0 1 0 2 0 a 1 1 0 1 0 -2 0 M 315.16 472.24 m -0.5 0 a 0.5 0.5 0 1 0 1 0 a 0.5 0.5 0 1 0 -1 0 M 315.16 472.24 L 315.16 472.24 L 327.16 472.24 M 321.16 478.24 L 321.16 478.24 L 321.16 466.24 M 327.16 472.24 Q 363.92 472.24 400.68 630.69 T 474.19 789.14 M 486.19 789.14 m -1 0 a 1 1 0 1 0 2 0 a 1 1 0 1 0 -2 0 M 486.19 789.14 m -0.5 0 a 0.5 0.5 0 1 0 1 0 a 0.5 0.5 0 1 0 -1 0 M 486.19 789.14 L 486.19 789.14 L 474.19 789.14 M 480.19 795.14 L 480.19 795.14 L 480.19 783.14" /><path class="r" id="h1607168654" d="M 143.81 497.24 m -1 0 a 1 1 0 1 0 2 0 a 1 1 0 1 0 -2 0 M 143.81 497.24 m -0.5 0 a 0.5 0.5 0 1 0 1 0 a 0.5 0.5 0 1 0 -1 0 M 143.81 497.24 L 143.81 497.24 L 131.81 497.24 M 137.81 503.24 L 137.81 503.24 L 137.81 491.24 M 131.81 497.24 C 81.81 497.24 6.378 149.38 257.53 149.38 M 269.53 149.38 m -1 0 a 1 1 0 1 0 2 0 a 1 1 0 1 0 -2 0 M 269.53 149.38 m -0.5 0 a 0.5 0.5 0 1 0 1 0 a 0.5 0.5 0 1 0 -1 0 M 269.53 149.38 L 269.53 149.38 L 257.53 149.38 M 263.53 155.38 L 263.53 155.38 L 263.53 143.38" /><path class="r" id="h1397587031" d="M 670.64 392.24 m -1 0 a 1 1 0 1 0 2 0 a 1 1 0 1 0 -2 0 M 670.64 392.24 m -0.5 0 a 0.5 0.5 0 1 0 1 0 a 0.5 0.5 0 1 0 -1 0 M 670.64 392.24 L 670.64 392.24 L 682.64 392.24 M 676.64 398.24 L 676.64 398.24 L 676.64 386.24 M 682.64 392.24 C 732.64 392.24 870.496 149.38 452.88 149.38 M 440.88 149.38 m -1 0 a 1 1 0 1 0 2 0 a 1 1 0 1 0 -2 0 M 440.88 149.38 m -0.5 0 a 0.5 0.5 0 1 0 1 0 a 0.5 0.5 0 1 0 -1 0 M 440.88 149.38 L 440.88 149.38 L 452.88 149.38 M 440.88 155.38 m -1 0 a 1 1 0 1 0 2 0 a 1 1 0 1 0 -2 0 M 440.88 155.38 m -0.5 0 a 0.5 0.5 0 1 0 1 0 a 0.5 0.5 0 1 0 -1 0 M 440.88 155.38 L 440.88 155.38 L 447.88 149.38 L 440.88 143.38 M 440.88 143.38 m -1 0 a 1 1 0 1 0 2 0 a 1 1 0 1 0 -2 0 M 440.88 143.38 m -0.5 0 a 0.5 0.5 0 1 0 1 0 a 0.5 0.5 0 1 0 -1 0" /><path class="r" id="h3816124126" d="M 499.29 417.24 m -1 0 a 1 1 0 1 0 2 0 a 1 1 0 1 0 -2 0 M 499.29 417.24 m -0.5 0 a 0.5 0.5 0 1 0 1 0 a 0.5 0.5 0 1 0 -1 0 M 499.29 417.24 L 499.29 417.24 L 487.29 417.24 M 493.29 423.24 L 493.29 423.24 L 493.29 411.24 M 487.29 417.24 C 416.33 417.24 424.19 789.14 474.19 789.14 M 486.19 789.14 m -1 0 a 1 1 0 1 0 2 0 a 1 1 0 1 0 -2 0 M 486.19 789.14 m -0.5 0 a 0.5 0.5 0 1 0 1 0 a 0.5 0.5 0 1 0 -1 0 M 486.19 789.14 L 486.19 789.14 L 474.19 789.14 M 486.19 795.14 m -1 0 a 1 1 0 1 0 2 0 a 1 1 0 1 0 -2 0 M 486.19 795.14 m -0.5 0 a 0.5 0.5 0 1 0 1 0 a 0.5 0.5 0 1 0 -1 0 M 486.19 795.14 L 486.19 795.14 L 479.19 789.14 L 486.19 783.14 M 486.19 783.14 m -1 0 a 1 1 0 1 0 2 0 a 1 1 0 1 0 -2 0 M 486.19 783.14 m -0.5 0 a 0.5 0.5 0 1 0 1 0 a 0.5 0.5 0 1 0 -1 0" /><path class="r" id="h3177548053" d="M 876.43 154.62 m -1 0 a 1 1 0 1 0 2 0 a 1 1 0 1 0 -2 0 M 876.43 154.62 m -0.5 0 a 0.5 0.5 0 1 0 1 0 a 0.5 0.5 0 1 0 -1 0 M 876.43 154.62 L 876.43 154.62 L 864.43 154.62 M 870.43 160.62 L 870.43 160.62 L 870.43 148.62 M 864.43 154.62 Q 815.71 154.62 766.98 471.88 T 669.54 789.14 M 657.54 789.14 m -1 0 a 1 1 0 1 0 2 0 a 1 1 0 1 0 -2 0 M 657.54 789.14 m -0.5 0 a 0.5 0.5 0 1 0 1 0 a 0.5 0.5 0 1 0 -1 0 M 657.54 789.14 L 657.54 789.14 L 669.54 789.14 M 657.54 795.14 m -1 0 a 1 1 0 1 0 2 0 a 1 1 0 1 0 -2 0 M 657.54 795.14 m -0.5 0 a 0.5 0.5 0 1 0 1 0 a 0.5 0.5 0 1 0 -1 0 M 657.54 795.14 L 657.54 795.14 L 664.54 789.14 L 657.54 783.14 M 657.54 783.14 m -1 0 a 1 1 0 1 0 2 0 a 1 1 0 1 0 -2 0 M 657.54 783.14 m -0.5 0 a 0.5 0.5 0 1 0 1 0 a 0.5 0.5 0 1 0 -1 0" /><path class="r" id="h3000826536" d="M 909.29 582 m -1 0 a 1 1 0 1 0 2 0 a 1 1 0 1 0 -2 0 M 909.29 582 m -0.5 0 a 0.5 0.5 0 1 0 1 0 a 0.5 0.5 0 1 0 -1 0 M 909.29 582 L 909.29 582 L 897.29 582 M 903.29 588 L 903.29 588 L 903.29 576 M 897.29 582 Q 840.36 582 783.42 685.57 T 669.54 789.14 M 657.54 789.14 m -1 0 a 1 1 0 1 0 2 0 a 1 1 0 1 0 -2 0 M 657.54 789.14 m -0.5 0 a 0.5 0.5 0 1 0 1 0 a 0.5 0.5 0 1 0 -1 0 M 657.54 789.14 L 657.54 789.14 L 669.54 789.14 M 663.54 795.14 L 663.54 795.14 L 663.54 783.14" /></g><g class="hrs" /><g class="ts"><svg class="t" id="h475896179" x="269.53" y="92.38" width="171.35" height="100"><rect class="th" width="171.35" height="40" /><text class="tht" x="13" y="25">departments</text><rect class="t-bg" y="40" width="171.35" height="60" /><text class="tf pk" x="13" y="61">dept_no<tspan class="ty" x="158.35">INTERGER</tspan></text><path class="i pk" transform="translate(76.35 48) scale(0.65)" d="M 7 14 A 2 2 0 0 1 5 12 A 2 2 0 0 1 7 10 A 2 2 0 0 1 9 12 A 2 2 0 0 1 7 14 M 12.65 10 C 11.83 7.67 9.61 6 7 6 A 6 6 0 0 0 1 12 A 6 6 0 0 0 7 18 C 9.61 18 11.83 16.33 12.65 14 H 17 V 18 H 21 V 14 H 23 V 10 H 12.65 Z" /><text class="tf" x="13" y="86">Dept_Name<tspan class="ty" x="158.35">VARCHAR</tspan></text></svg><svg class="t" id="h1090417462" x="143.81" y="415.24" width="171.35" height="150"><rect class="th" width="171.35" height="40" /><text class="tht" x="13" y="25">dept_emp</text><rect class="t-bg" y="40" width="171.35" height="110" /><text class="tf pk" x="13" y="61">emp_no<tspan class="ty" x="158.35">INTERGER</tspan></text><path class="i pk" transform="translate(76.35 48) scale(0.65)" d="M 7 14 A 2 2 0 0 1 5 12 A 2 2 0 0 1 7 10 A 2 2 0 0 1 9 12 A 2 2 0 0 1 7 14 M 12.65 10 C 11.83 7.67 9.61 6 7 6 A 6 6 0 0 0 1 12 A 6 6 0 0 0 7 18 C 9.61 18 11.83 16.33 12.65 14 H 17 V 18 H 21 V 14 H 23 V 10 H 12.65 Z" /><text class="tf fk" x="13" y="86">dept_no<tspan class="ty" x="158.35">INTERGER</tspan></text><text class="tf" x="13" y="111">from_date<tspan class="ty" x="158.35">DATE</tspan></text><text class="tf" x="13" y="136">to_date<tspan class="ty" x="158.35">DATE</tspan></text></svg><svg class="t" id="h1676682957" x="499.29" y="335.24" width="171.35" height="150"><rect class="th" width="171.35" height="40" /><text class="tht" x="13" y="25">dept_manager</text><rect class="t-bg" y="40" width="171.35" height="110" /><text class="tf pk" x="13" y="61">dept_no<tspan class="ty" x="158.35">INTERGER</tspan></text><path class="i pk" transform="translate(76.35 48) scale(0.65)" d="M 7 14 A 2 2 0 0 1 5 12 A 2 2 0 0 1 7 10 A 2 2 0 0 1 9 12 A 2 2 0 0 1 7 14 M 12.65 10 C 11.83 7.67 9.61 6 7 6 A 6 6 0 0 0 1 12 A 6 6 0 0 0 7 18 C 9.61 18 11.83 16.33 12.65 14 H 17 V 18 H 21 V 14 H 23 V 10 H 12.65 Z" /><text class="tf fk" x="13" y="86">Emp_No<tspan class="ty" x="158.35">INTERGER</tspan></text><text class="tf" x="13" y="111">From_date<tspan class="ty" x="158.35">DATE</tspan></text><text class="tf" x="13" y="136">To_date<tspan class="ty" x="158.35">DATE</tspan></text></svg><svg class="t" id="h1639608377" x="486.19" y="732.14" width="171.35" height="200"><rect class="th" width="171.35" height="40" /><text class="tht" x="13" y="25">employees</text><rect class="t-bg" y="40" width="171.35" height="160" /><text class="tf pk" x="13" y="61">emp_no<tspan class="ty" x="158.35">INTERGER</tspan></text><path class="i pk" transform="translate(76.35 48) scale(0.65)" d="M 7 14 A 2 2 0 0 1 5 12 A 2 2 0 0 1 7 10 A 2 2 0 0 1 9 12 A 2 2 0 0 1 7 14 M 12.65 10 C 11.83 7.67 9.61 6 7 6 A 6 6 0 0 0 1 12 A 6 6 0 0 0 7 18 C 9.61 18 11.83 16.33 12.65 14 H 17 V 18 H 21 V 14 H 23 V 10 H 12.65 Z" /><text class="tf" x="13" y="86">birth_date<tspan class="ty" x="158.35">DATE</tspan></text><text class="tf" x="13" y="111">first_name<tspan class="ty" x="158.35">VARCHAR</tspan></text><text class="tf" x="13" y="136">last_name<tspan class="ty" x="158.35">VARCHAR</tspan></text><text class="tf" x="13" y="161">gender<tspan class="ty" x="158.35">VARCHAR</tspan></text><text class="tf" x="13" y="186">Hire_date<tspan class="ty" x="158.35">DATE</tspan></text></svg><svg class="t" id="h2472833127" x="876.43" y="97.62" width="151.35" height="150"><rect class="th" width="151.35" height="40" /><text class="tht" x="13" y="25">salaries</text><rect class="t-bg" y="40" width="151.35" height="110" /><text class="tf fk" x="13" y="61">emp_no<tspan class="ty" x="138.35">INTERGER</tspan></text><text class="tf" x="13" y="86">salary<tspan class="ty" x="138.35">INTERGER</tspan></text><text class="tf" x="13" y="111">from_date<tspan class="ty" x="138.35">DATE</tspan></text><text class="tf" x="13" y="136">to_date<tspan class="ty" x="138.35">DATE</tspan></text></svg><svg class="t" id="h311790747" x="909.29" y="525" width="171.35" height="150"><rect class="th" width="171.35" height="40" /><text class="tht" x="13" y="25">titles</text><rect class="t-bg" y="40" width="171.35" height="110" /><text class="tf pk" x="13" y="61">emp_no<tspan class="ty" x="158.35">INTERGER</tspan></text><path class="i pk" transform="translate(76.35 48) scale(0.65)" d="M 7 14 A 2 2 0 0 1 5 12 A 2 2 0 0 1 7 10 A 2 2 0 0 1 9 12 A 2 2 0 0 1 7 14 M 12.65 10 C 11.83 7.67 9.61 6 7 6 A 6 6 0 0 0 1 12 A 6 6 0 0 0 7 18 C 9.61 18 11.83 16.33 12.65 14 H 17 V 18 H 21 V 14 H 23 V 10 H 12.65 Z" /><text class="tf" x="13" y="86">Title<tspan class="ty" x="158.35">VARCHAR</tspan></text><text class="tf" x="13" y="111">From_date<tspan class="ty" x="158.35">DATE</tspan></text><text class="tf" x="13" y="136">To_date<tspan class="ty" x="158.35">DATE</tspan></text></svg></g></g></svg>